<?xml version="1.0" encoding="utf-8"?>
<!-- Generator: Adobe Illustrator 22.0.1, SVG Export Plug-In . SVG Version: 6.00 Build 0)  -->
<svg version="1.1" id="Calque_1" xmlns="http://www.w3.org/2000/svg" xmlns:xlink="http://www.w3.org/1999/xlink" x="0px" y="0px"
	 viewBox="0 0 483 269" style="enable-background:new 0 0 483 269;" xml:space="preserve">
<style type="text/css">
	.st0{fill:#FFFFFF;}
</style>
<path d="M363.4,255.4c-8.8,0-17.4,0-26.2,0c-2-6-3.9-12.1-5.9-18.3c-1.8-5.6-1.7-5.6-7.7-5.6c-11.4,0-22.7,0-34.1,0
	c-1.9,0-2.8,0.5-3.3,2.3c-2,6.6-4.2,13.1-6.4,19.6c-0.3,0.8-1.2,1.9-1.9,1.9c-7.9,0.1-15.9,0.1-24.2,0.1c1.2-3.5,2.4-6.6,3.5-9.8
	c12.3-34.6,24.7-69.1,36.9-103.7c0.6-1.8,1.4-2.6,3.5-2.6c7.6,0.1,15.2,0.1,22.8,0c1.5,0,2.3,0.3,2.9,1.9
	c13.2,37.5,26.5,74.9,39.7,112.4C363.1,254.2,363.2,254.6,363.4,255.4z M323,211.5c-4.8-14.9-9.5-29.6-14.5-45.1
	c-5.1,15.5-10,30.2-14.9,45.1C303.6,211.5,313.2,211.5,323,211.5z"/>
<path d="M274,123.6c-8.5,0-16.7,0-24.9-0.1c-0.7,0-1.7-1.1-1.9-1.8c-2.2-6.6-4.4-13.2-6.4-19.9c-0.4-1.4-1-1.9-2.5-1.9
	c-12.9,0.1-25.8,0.1-38.8,0c-1.5,0-2.1,0.6-2.5,1.9c-2.1,6.6-4.3,13.3-6.6,19.8c-0.3,0.8-1.4,1.8-2.2,1.8c-7.5,0.1-15,0.1-22.5,0.1
	c-0.3,0-0.6-0.1-1.2-0.2c2.3-6.5,4.6-12.9,6.9-19.3c11.1-31,22.2-62,33.1-93.1c0.9-2.6,2.1-3.4,4.8-3.3c7.2,0.2,14.5,0.1,21.7,0
	c1.5,0,2.3,0.3,2.8,1.9C247,47,260.3,84.4,273.5,121.8C273.7,122.3,273.8,122.8,274,123.6z M219.2,34.7c-5.1,15.5-10,30.3-14.9,45.1
	c9.9,0,19.5,0,29.4,0C228.9,64.9,224.1,50.1,219.2,34.7z"/>
<path d="M129,84.4c8.1,0,16,0,23.9,0c-2.1,17-14.5,38-38.7,41.8c-11,1.7-21.8,1-32.1-3.3c-13.8-5.8-22.5-16.4-26.9-30.3
	c-5.5-17.4-5.5-35,0.1-52.3c7.4-22.7,26.1-35.4,50.1-34.6c10.7,0.3,21,2.4,29.9,8.9c10.2,7.5,16.3,17.5,17.9,30.2c0.1,0.5,0,1,0,1.7
	c-8,0-15.9,0-24,0c-0.7-1.9-1.4-3.9-2.2-5.9c-3.6-8.9-10.5-13.2-19.8-13.9c-13.5-0.9-22.9,5.2-27.4,18.3c-4.7,13.5-4.9,27.3-0.9,41
	c2.9,9.9,9.1,17.2,19.6,19.4c12.3,2.5,23.8-1.6,28.8-15.5C127.9,87.9,128.5,86.1,129,84.4z"/>
<path d="M450.8,216c8,0,15.8,0,24.2,0c-0.9,3.4-1.5,6.7-2.6,9.9c-7.5,22.1-26.9,34.7-50.2,32.8c-8.9-0.7-17.4-2.6-25-7.5
	c-10.6-6.7-17.3-16.4-20.7-28.3c-4.7-16-4.7-32.3-0.2-48.3c7.1-25,27.5-39,53.4-37c11.9,0.9,22.9,3.9,31.7,12.4
	c7,6.7,11.5,14.8,13.3,24.4c0.2,1.2,0.2,2.4,0.3,3.9c-7.8,0-15.5,0-23.1,0c-0.5,0-1.1-0.7-1.5-1.1c-0.3-0.4-0.3-1-0.5-1.5
	c-3.8-11.2-10.2-16.5-21.4-17.3c-11.4-0.8-19.8,3.8-25.1,13.9c-5.3,10.1-5.9,21-5.3,32.1c0.4,6.4,1.5,12.6,4.4,18.5
	c5.8,11.8,17.6,17.2,30.4,14.1c7.7-1.9,12.6-6.8,15.4-14C449.2,220.6,450,218.3,450.8,216z"/>
<path d="M163.8,139.7c8.1,0,16.1,0,24.2,0c0,31.6,0,63,0,94.7c19.3,0,38.3,0,57.6,0c0,7.1,0,14,0,21c-27.3,0-54.5,0-81.8,0
	C163.8,216.8,163.8,178.3,163.8,139.7z"/>
<path d="M288.9,123.5c0-38.7,0-77,0-115.6c8,0,15.9,0,24.1,0c0,31.6,0,63.1,0,94.9c19.4,0,38.4,0,57.6,0c0,7.1,0,13.8,0,20.7
	C343.3,123.5,316.2,123.5,288.9,123.5z"/>
<path d="M132,201.9c0,5.7,0,11.2,0,16.9c-40.8,0-81.5,0-122.3,0c0-5.6,0-11.2,0-16.9C50.5,201.9,91.1,201.9,132,201.9z"/>
<path d="M33.3,123.5c-8,0-15.7,0-23.6,0c0-7.8,0-15.4,0-23.3c7.8,0,15.6,0,23.6,0C33.3,108,33.3,115.6,33.3,123.5z"/>
<path class="st0" d="M323,211.5c-9.9,0-19.4,0-29.4,0c4.9-14.9,9.8-29.6,14.9-45.1C313.5,181.8,318.2,196.6,323,211.5z"/>
<path class="st0" d="M219.2,34.7c5,15.5,9.7,30.2,14.5,45.1c-9.9,0-19.5,0-29.4,0C209.2,64.9,214.1,50.2,219.2,34.7z"/>
</svg>
